<svg xmlns="http://www.w3.org/2000/svg" viewBox="0 0 1440 320"><path fill="#ffffff" fill-opacity="1" d="M0,224L20,192C40,160,80,96,120,96C160,96,200,160,240,170.7C280,181,320,139,360,144C400,149,440,203,480,218.7C520,235,560,213,600,186.7C640,160,680,128,720,117.3C760,107,800,117,840,144C880,171,920,213,960,213.3C1000,213,1040,171,1080,181.3C1120,192,1160,256,1200,250.7C1240,245,1280,171,1320,144C1360,117,1400,139,1420,149.3L1440,160L1440,0L1420,0C1400,0,1360,0,1320,0C1280,0,1240,0,1200,0C1160,0,1120,0,1080,0C1040,0,1000,0,960,0C920,0,880,0,840,0C800,0,760,0,720,0C680,0,640,0,600,0C560,0,520,0,480,0C440,0,400,0,360,0C320,0,280,0,240,0C200,0,160,0,120,0C80,0,40,0,20,0L0,0Z"></path></svg>