<svg xmlns="http://www.w3.org/2000/svg" viewBox="0 0 1440 320"><path fill="#ffffff" fill-opacity="1" d="M0,128L34.3,128C68.6,128,137,128,206,154.7C274.3,181,343,235,411,234.7C480,235,549,181,617,160C685.7,139,754,149,823,165.3C891.4,181,960,203,1029,197.3C1097.1,192,1166,160,1234,144C1302.9,128,1371,128,1406,128L1440,128L1440,0L1405.7,0C1371.4,0,1303,0,1234,0C1165.7,0,1097,0,1029,0C960,0,891,0,823,0C754.3,0,686,0,617,0C548.6,0,480,0,411,0C342.9,0,274,0,206,0C137.1,0,69,0,34,0L0,0Z"></path></svg>