<svg xmlns="http://www.w3.org/2000/svg" viewBox="0 0 1440 320"><path fill="#FFBB00" fill-opacity="1" d="M0,96L9.2,90.7C18.5,85,37,75,55,96C73.8,117,92,171,111,165.3C129.2,160,148,96,166,106.7C184.6,117,203,203,222,213.3C240,224,258,160,277,112C295.4,64,314,32,332,26.7C350.8,21,369,43,388,64C406.2,85,425,107,443,144C461.5,181,480,235,498,224C516.9,213,535,139,554,128C572.3,117,591,171,609,186.7C627.7,203,646,181,665,197.3C683.1,213,702,267,720,282.7C738.5,299,757,277,775,229.3C793.8,181,812,107,831,85.3C849.2,64,868,96,886,128C904.6,160,923,192,942,213.3C960,235,978,245,997,218.7C1015.4,192,1034,128,1052,90.7C1070.8,53,1089,43,1108,85.3C1126.2,128,1145,224,1163,245.3C1181.5,267,1200,213,1218,165.3C1236.9,117,1255,75,1274,48C1292.3,21,1311,11,1329,26.7C1347.7,43,1366,85,1385,138.7C1403.1,192,1422,256,1431,288L1440,320L1440,0L1430.8,0C1421.5,0,1403,0,1385,0C1366.2,0,1348,0,1329,0C1310.8,0,1292,0,1274,0C1255.4,0,1237,0,1218,0C1200,0,1182,0,1163,0C1144.6,0,1126,0,1108,0C1089.2,0,1071,0,1052,0C1033.8,0,1015,0,997,0C978.5,0,960,0,942,0C923.1,0,905,0,886,0C867.7,0,849,0,831,0C812.3,0,794,0,775,0C756.9,0,738,0,720,0C701.5,0,683,0,665,0C646.2,0,628,0,609,0C590.8,0,572,0,554,0C535.4,0,517,0,498,0C480,0,462,0,443,0C424.6,0,406,0,388,0C369.2,0,351,0,332,0C313.8,0,295,0,277,0C258.5,0,240,0,222,0C203.1,0,185,0,166,0C147.7,0,129,0,111,0C92.3,0,74,0,55,0C36.9,0,18,0,9,0L0,0Z"></path></svg>