<svg xmlns="http://www.w3.org/2000/svg" viewBox="0 0 1440 320"><path fill="#FFBB00" fill-opacity="1" d="M0,32L14.1,58.7C28.2,85,56,139,85,144C112.9,149,141,107,169,90.7C197.6,75,226,85,254,122.7C282.4,160,311,224,339,250.7C367.1,277,395,267,424,245.3C451.8,224,480,192,508,202.7C536.5,213,565,267,593,240C621.2,213,649,107,678,74.7C705.9,43,734,85,762,133.3C790.6,181,819,235,847,256C875.3,277,904,267,932,261.3C960,256,988,256,1016,240C1044.7,224,1073,192,1101,165.3C1129.4,139,1158,117,1186,90.7C1214.1,64,1242,32,1271,37.3C1298.8,43,1327,85,1355,128C1383.5,171,1412,213,1426,234.7L1440,256L1440,0L1425.9,0C1411.8,0,1384,0,1355,0C1327.1,0,1299,0,1271,0C1242.4,0,1214,0,1186,0C1157.6,0,1129,0,1101,0C1072.9,0,1045,0,1016,0C988.2,0,960,0,932,0C903.5,0,875,0,847,0C818.8,0,791,0,762,0C734.1,0,706,0,678,0C649.4,0,621,0,593,0C564.7,0,536,0,508,0C480,0,452,0,424,0C395.3,0,367,0,339,0C310.6,0,282,0,254,0C225.9,0,198,0,169,0C141.2,0,113,0,85,0C56.5,0,28,0,14,0L0,0Z"></path></svg>