<svg xmlns="http://www.w3.org/2000/svg" viewBox="0 0 1440 320"><path fill="#ffffff" fill-opacity="1" d="M0,96L18.5,101.3C36.9,107,74,117,111,122.7C147.7,128,185,128,222,144C258.5,160,295,192,332,192C369.2,192,406,160,443,160C480,160,517,192,554,208C590.8,224,628,224,665,192C701.5,160,738,96,775,90.7C812.3,85,849,139,886,144C923.1,149,960,107,997,80C1033.8,53,1071,43,1108,74.7C1144.6,107,1182,181,1218,186.7C1255.4,192,1292,128,1329,101.3C1366.2,75,1403,85,1422,90.7L1440,96L1440,0L1421.5,0C1403.1,0,1366,0,1329,0C1292.3,0,1255,0,1218,0C1181.5,0,1145,0,1108,0C1070.8,0,1034,0,997,0C960,0,923,0,886,0C849.2,0,812,0,775,0C738.5,0,702,0,665,0C627.7,0,591,0,554,0C516.9,0,480,0,443,0C406.2,0,369,0,332,0C295.4,0,258,0,222,0C184.6,0,148,0,111,0C73.8,0,37,0,18,0L0,0Z"></path></svg>